<?xml version="1.0" encoding="UTF-8" standalone="no"?>
<svg
   width="172"
   height="52"
   viewBox="0 0 172 52"
   fill="none"
   version="1.1"
   id="svg2017"
   sodipodi:docname="logo-white.svg"
   inkscape:version="1.2 (dc2aeda, 2022-05-15)"
   xmlns:inkscape="http://www.inkscape.org/namespaces/inkscape"
   xmlns:sodipodi="http://sodipodi.sourceforge.net/DTD/sodipodi-0.dtd"
   xmlns="http://www.w3.org/2000/svg"
   xmlns:svg="http://www.w3.org/2000/svg">
  <defs
     id="defs2021" />
  <sodipodi:namedview
     id="namedview2019"
     pagecolor="#ffffff"
     bordercolor="#666666"
     borderopacity="1.0"
     inkscape:showpageshadow="2"
     inkscape:pageopacity="0.0"
     inkscape:pagecheckerboard="0"
     inkscape:deskcolor="#d1d1d1"
     showgrid="false"
     inkscape:zoom="4.5384615"
     inkscape:cx="64.008475"
     inkscape:cy="26.220339"
     inkscape:window-width="1309"
     inkscape:window-height="456"
     inkscape:window-x="0"
     inkscape:window-y="38"
     inkscape:window-maximized="0"
     inkscape:current-layer="svg2017" />
  <path
     d="M1 12.861C1 6.86259 5.92485 2 12 2C18.0752 2 23 6.86259 23 12.861V15.7998C21.1579 15.0719 19.1471 14.6711 17.0417 14.6711C8.18205 14.6711 1 21.7624 1 30.51V12.861Z"
     fill="#27DA68"
     id="path2009" />
  <path
     fill-rule="evenodd"
     clip-rule="evenodd"
     d="M17 46.5098C25.8366 46.5098 33 39.3463 33 30.5098C33 21.6732 25.8366 14.5098 17 14.5098C8.16344 14.5098 1 21.6732 1 30.5098C1 39.3463 8.16344 46.5098 17 46.5098ZM17 38.7383C21.5445 38.7383 25.2286 35.0543 25.2286 30.5098C25.2286 25.9653 21.5445 22.2812 17 22.2812C12.4555 22.2812 8.77143 25.9653 8.77143 30.5098C8.77143 35.0543 12.4555 38.7383 17 38.7383Z"
     fill="white"
     id="path2011" />
  <text
     xml:space="preserve"
     style="font-size:32px;line-height:1.25;font-family:'Bangla MN';-inkscape-font-specification:'Bangla MN';display:inline;fill:#22c55e;fill-opacity:1"
     x="42.487541"
     y="37.720676"
     id="text314"><tspan
       id="tspan312"
       x="42.487541"
       y="37.720676"
       style="font-style:normal;font-variant:normal;font-weight:600;font-stretch:normal;font-size:32px;font-family:Gibson;-inkscape-font-specification:'Gibson, Semi-Bold';font-variant-ligatures:normal;font-variant-caps:normal;font-variant-numeric:normal;font-variant-east-asian:normal;fill:#22c55e;fill-opacity:1">Fi<tspan
   style="fill:#ffffff"
   id="tspan3012">ntera</tspan></tspan></text>
</svg>
