<?xml version="1.0" encoding="UTF-8" standalone="no"?>
<!-- Created with Inkscape (http://www.inkscape.org/) -->

<svg
   width="38.417492mm"
   height="11.776551mm"
   viewBox="0 0 38.417492 11.776551"
   version="1.1"
   id="svg5"
   xml:space="preserve"
   xmlns="http://www.w3.org/2000/svg"
   xmlns:svg="http://www.w3.org/2000/svg"><defs
     id="defs2"><rect
       x="235.01132"
       y="726.89551"
       width="105.10345"
       height="47.927174"
       id="rect2168" /></defs><g
     id="layer1"
     style="display:inline"
     transform="translate(-69.078894,-164.99714)"><g
       style="display:inline;fill:none"
       id="g27"
       transform="matrix(0.26458333,0,0,0.26458333,68.515076,147.4023)"><text
         xml:space="preserve"
         style="font-size:32px;line-height:1.25;font-family:'Bangla MN';-inkscape-font-specification:'Bangla MN';fill:#1a202c;fill-opacity:1"
         x="37.857517"
         y="100.83656"
         id="text314"><tspan
           id="tspan312"
           x="37.857517"
           y="100.83656"
           style="font-style:normal;font-variant:normal;font-weight:600;font-stretch:normal;font-size:32px;font-family:Gibson;-inkscape-font-specification:'Gibson, Semi-Bold';font-variant-ligatures:normal;font-variant-caps:normal;font-variant-numeric:normal;font-variant-east-asian:normal;fill:#1a202c;fill-opacity:1">Land</tspan></text><text
         xml:space="preserve"
         transform="translate(-127.56371,-656.08763)"
         id="text2166"
         style="font-size:32px;line-height:1.25;font-family:'Bangla MN';-inkscape-font-specification:'Bangla MN';white-space:pre;shape-inside:url(#rect2168);shape-padding:0.420414;display:inline;fill:#22c55e;fill-opacity:1"><tspan
           x="235.43164"
           y="756.91641"
           id="tspan5214"><tspan
   style="font-weight:600;font-family:Gibson;-inkscape-font-specification:'Gibson Semi-Bold';display:inline"
   id="tspan5212">Fy</tspan>.</tspan></text></g><g
       style="fill:none"
       id="g211"
       transform="matrix(0.26458333,0,0,0.26458333,69.078894,164.99714)"><path
         d="M 0,10.861 C 0,4.86259 4.92485,0 11,0 17.0752,0 22,4.86259 22,10.861 v 2.9388 C 20.1579,13.0719 18.1471,12.6711 16.0417,12.6711 7.18205,12.6711 0,19.7624 0,28.51 Z"
         fill="#22c55e"
         id="path199" /><path
         fill-rule="evenodd"
         clip-rule="evenodd"
         d="m 16,44.5098 c 8.8366,0 16,-7.1635 16,-16 0,-8.8366 -7.1634,-16 -16,-16 -8.83656,0 -16,7.1634 -16,16 0,8.8365 7.16344,16 16,16 z m 0,-7.7715 c 4.5445,0 8.2286,-3.684 8.2286,-8.2285 0,-4.5445 -3.6841,-8.2286 -8.2286,-8.2286 -4.5445,0 -8.22857,3.6841 -8.22857,8.2286 0,4.5445 3.68407,8.2285 8.22857,8.2285 z"
         fill="#1a202c"
         id="path201" /></g></g></svg>
